PathFileType	4	(X/Y/Z)	C:/Users/beibeiliu/ov580/test_trc/User3\sequence.22_training_dense_right.trc
DataRate	CameraRate	NumFrames	NumMarkers	Units	OrigDataRate	OrigDataStartFrame	OrigNumFrames
120	120	18	19	mm	120	65	96
Frame#	Time	ThumbCMC			ThumbMCP			ThumbIP			ThumbTip			IndexMCP			IndexPIP			IndexTip			MiddleMCP			MiddlePIP			MiddleTip			RingMCP			RingPIP			RingTip			PinkyMCP			PinkyPIP			PinkyTip			BackHand1			BackHand2			BackHand3	
		X0	Y0	Z0	X1	Y1	Z1	X2	Y2	Z2	X3	Y3	Z3	X4	Y4	Z4	X5	Y5	Z5	X6	Y6	Z6	X7	Y7	Z7	X8	Y8	Z8	X9	Y9	Z9	X10	Y10	Z10	X11	Y11	Z11	X12	Y12	Z12	X13	Y13	Z13	X14	Y14	Z14	X15	Y15	Z15	X16	Y16	Z16	X17	Y17	Z17	X18	Y18	Z18	
64	0.533333	199.661	6.09546	12.4746	209.452	28.5898	-17.5371	207.721	45.3516	-39.2312	186.147	51.8498	-59.3475	189.172	-3.04299	-63.9246	185.697	29.0472	-82.4123	174.456	53.9981	-69.3903	167.816	-18.8629	-70.6067	162.565	-7.0736	-97.9906	160.974	18.9974	-120.998	145.284	-22.0825	-59.4268	139.709	-17.6952	-90.4311	138.219	-4.7847	-109.874	122.972	-18.7281	-42.0201	112.561	-18.7364	-63.2062	100.324	-16.2246	-82.3968	147.464	-32.2909	-11.3794	147.886	-34.9156	21.3801	181.27	-27.2037	2.97925	
65	0.541667	218.017	15.7988	15.6402	224.544	35.4323	-9.98662	227.884	50.2801	-35.4647	212.166	54.6544	-56.7049	221.067	-0.813019	-58.1893	212.679	26.4191	-79.4575	199.762	50.2867	-70.1564	202.618	-23.8914	-69.8652	205.571	-13.6624	-95.0274	204.842	9.63943	-119.623	185.69	-26.943	-61.2165	187.141	-25.1483	-87.988	185.738	-12.6354	-114.286	156.829	-27.3272	-48.2986	148.189	-29.7235	-71.7522	144.038	-27.6162	-91.384	176.602	-32.8432	-7.86651	172.438	-31.219	22.6702	205.542	-24.385	5.94173	
66	0.55	226.525	35.872	18.6399	229.418	56.057	-5.78993	232.988	70.0184	-35.8403	219.78	66.6954	-57.2074	244.389	19.7113	-55.2443	237.029	43.1956	-74.0574	208.121	61.9873	-64.6993	238.622	-8.85401	-59.7746	243.906	-0.566406	-89.6498	237.024	19.6056	-119.612	222.278	-20.7738	-59.4448	227.555	-18.5645	-86.7575	227.434	-8.21509	-109.756	193.106	-27.8783	-47.9198	191.982	-32.2996	-68.3011	186.274	-33.3359	-95.845	206.897	-27.2	-9.62366	196.389	-24.9688	19.9447	227.226	-4.85529	13.4321	
67	0.558333	217.985	57.8772	20.1358	215.387	76.5455	-7.10971	215.222	85.2879	-37.1159	208.252	82.6663	-59.5714	252.305	49.851	-49.5408	235.114	68.0874	-70.726	203.018	68.0931	-66.5344	261.799	25.3183	-56.1427	264.834	30.6309	-82.5875	256.314	44.2214	-112.366	247.181	2.1355	-49.9078	257.71	6.70469	-76.0672	255.991	14.8391	-104.055	224.369	-16.4199	-45.6575	233.624	-17.6478	-70.9342	231.913	-20.3811	-92.8253	230.666	-6.30295	-2.96537	216.682	-13.2703	24.0407	239.898	23.106	16.2178	
68	0.566667	193.79	65.0891	17.1725	186.204	79.8977	-8.80673	181.883	93.9402	-39.692	183.949	85.4205	-64.6541	237.2	76.7921	-44.3177	220.383	83.1797	-72.0778	189.006	72.5506	-70.3874	259.965	58.4057	-51.9974	260.684	67.7797	-77.111	250.226	76.4872	-109.173	257.743	33.2289	-47.122	265.723	43.9069	-70.6238	264.676	51.7762	-101.35	246.672	9.01764	-43.2355	254.954	10.7292	-61.6593	261.629	11.9863	-89.8067	240.261	19.7309	0.903916	229.707	6.9049	22.8221	231.658	43.2857	17.1184	
69	0.575	170.308	55.5625	7.60748	155.593	66.292	-16.4995	151.09	76.7339	-48.9375	155.742	70.3532	-69.9913	201.291	92.8441	-49.3507	186.89	88.2847	-76.2886	168.375	62.7579	-79.0798	231.034	85.3872	-48.3002	230.037	96.8315	-75.7488	223.409	94.5829	-110.401	241.662	61.9479	-44.5174	245.85	75.3395	-67.9077	248.373	77.885	-99.4064	246.052	38.1344	-41.9788	257.875	37.3016	-59.2146	264.612	41.7125	-82.4044	233.56	40.4109	-1.37549	221.655	25.6268	25.7788	204.123	56.3831	18.2428	
70	0.583333	145.828	34.6555	0.743763	130.848	40.5423	-28.6073	121.152	47.0329	-58.5354	133.173	44.8208	-82.2185	167.569	81.9956	-60.1639	155.347	71.3883	-86.4999	147.889	37.2223	-87.088	197.267	86.5446	-54.1804	190.246	97.984	-80.4678	188.807	93.3047	-114.85	209.806	72.4469	-48.9817	212.991	86.6489	-71.5571	212.662	92.4034	-100.465	227.437	52.3244	-43.4282	239.842	59.2399	-62.8178	245.536	66.1047	-79.7689	210.169	48.8919	-7.0842	206.045	33.1804	17.5471	178.664	54.886	10.4131	
71	0.591667	127.457	14.1144	-7.88117	109.164	11.7981	-34.6362	108.137	14.1113	-67.0709	117.76	12.7344	-92.3702	137.871	58.5931	-69.3168	135.439	41.5094	-98.1073	133.61	11.838	-96.5252	161.971	72.6202	-68.3834	158.943	78.5043	-94.2704	155.885	69.6913	-131.482	183.227	63.9475	-59.5389	187.83	74.6018	-82.0925	185.407	80.721	-113.488	205.506	44.6301	-48.6682	213.196	56.8599	-65.3429	222.329	63.4219	-84.6346	186.816	43.6389	-10.9207	185.001	27.1131	15.7983	152.921	37.7736	2.61021	
72	0.6	115.048	-8.21255	-8.38484	99.0809	-14.8409	-40.2475	95.4063	-18.3787	-69.7827	106.032	-22.2992	-92.8049	121.29	28.6608	-77.2256	119.226	5.77496	-106.144	126.659	-23.7082	-98.3651	142.072	44.7884	-80.0654	140.674	46.3803	-109.968	136.555	33.9436	-139.832	162.524	41.6919	-68.1845	161.749	51.5478	-96.2704	167.359	51.8039	-124.816	185.047	28.6481	-55.6826	194.45	41.1029	-78.0032	206.61	48.673	-97.3694	167.142	30.4202	-20.1823	170.407	21.7282	4.42805	132.754	24.2356	-9.57985	
73	0.608333	101.392	-23.86	-10.3183	83.8104	-40.2794	-33.4978	82.4469	-49.0306	-62.1908	89.8435	-55.136	-84.9533	101.56	-1.60463	-82.421	97.4757	-27.1357	-104.353	108.594	-54.7651	-96.4274	121.447	15.7697	-86.9107	119.234	11.8354	-113.869	116.9	-5.12065	-144.386	142.904	16.1927	-75.7733	145.822	22.7423	-105.415	146.117	17.6128	-133.14	169.459	8.41058	-62.2733	179.672	17.4097	-83.6676	186.894	24.0209	-107.199	147.774	13.3605	-29.812	153.098	9.96085	1.38638	117.576	7.05018	-11.2426	
74	0.616667	86.9322	-30.3318	-3.4625	70.433	-47.8372	-27.1159	63.8339	-61.9304	-49.9683	70.9027	-72.8296	-72.3984	83.5388	-20.364	-79.0958	77.9578	-49.0349	-98.1319	89.325	-74.5123	-87.0497	104.41	-6.16313	-88.3897	101.715	-14.7344	-116.738	97.8266	-33.0188	-141.157	127.787	-4.365	-77.6723	127.545	-5.15004	-110.617	126.534	-11.9633	-132.163	152.861	-11.6736	-64.3274	160.956	-7.08009	-89.7071	164.941	-7.22696	-112.429	136.729	1.01675	-33.8475	140.904	2.25569	-0.859513	104.334	1.2766	-15.9804	
75	0.625	73.0435	-19.0983	1.37287	51.0378	-34.8984	-15.2622	39.1325	-50.5791	-37.3211	39.6518	-66.9934	-62.1272	68.4331	-21.8385	-75.5166	55.917	-48.3103	-87.666	54.5985	-75.3279	-72.332	91.6571	-12.8681	-82.3124	82.1357	-24.5758	-112.274	72.7499	-47.9025	-136.463	115.77	-17.4793	-80.8945	111.546	-20.1416	-102.738	107.67	-33.1413	-129.047	137.994	-29.408	-61.2429	144.462	-31.1104	-83.1768	147.777	-35.95	-109.449	129.247	-7.79958	-32.9573	135.068	-4.13061	-1.97354	97.6195	5.74255	-14.9448	
76	0.633333	71.5751	3.00792	4.71374	42.9888	-5.74221	-16.2721	26.4941	-18.4514	-33.8286	16.755	-35.1152	-52.0807	66.6914	-7.75412	-70.7454	38.2061	-25.9672	-80.0641	29.4467	-54.2957	-60.7455	87.619	-10.9629	-82.0147	75.0424	-21.9986	-108.167	54.5722	-38.2792	-126.332	105.871	-23.3202	-73.279	100.98	-30.1685	-102.518	90.6168	-42.004	-122.834	120.837	-41.3706	-57.1625	124.082	-48.463	-78.3885	121.542	-56.1877	-103.883	123.928	-13.79	-25.6719	136.066	-10.3326	-3.77957	105.637	10.9702	-10.617	
77	0.641667	82.0086	25.9198	1.86186	54.6196	25.4044	-14.0717	31.9355	22.7228	-33.5838	15.4169	8.21543	-49.8735	65.8726	11.2222	-72.6128	36.6279	1.63965	-76.4198	17.2454	-14.2119	-57.5682	88.331	-8.63451	-81.3993	71.1086	-10.8682	-103.924	46.4384	-24.0038	-123.168	99.8058	-28.9617	-74.4346	89.8327	-29.9677	-95.0865	75.2393	-38.095	-115.993	104.767	-49.9751	-50.7304	101.387	-59.7142	-72.7082	93.434	-69.7918	-95.0414	119.242	-19.8714	-25.9877	130.824	-19.8545	-0.424348	115.431	10.3606	-14.2196	
78	0.65	104.537	39.5104	-1.07484	79.1881	51.5328	-18.0091	54.6704	56.1783	-43.7275	36.979	43.1102	-56.3728	85.8326	21.0679	-71.9481	53.8054	30.5665	-79.9836	28.9762	26.5626	-60.5494	97.0991	-3.98728	-78.2096	79.0254	-6.31194	-104.317	52.4618	-3.14179	-123.473	96.1904	-26.1282	-69.6966	86.2191	-30.923	-94.4855	68.0483	-31.1165	-114.441	90.8636	-45.0276	-49.1857	84.1709	-55.304	-64.3618	74.969	-61.2842	-85.9945	120.006	-21.0629	-23.138	131.28	-19.3054	4.55973	127.596	9.6047	-16.0252	
79	0.658333	130.603	41.4309	-7.68069	114.034	60.8301	-28.0217	96.2838	69.661	-46.3041	75.9702	67.2219	-64.6842	109.722	29.051	-79.5965	81.8714	43.3817	-86.9518	63.4581	58.0651	-68.1017	111.821	-1.784	-81.1437	96.507	1.28262	-107.002	70.2208	14.1869	-131.347	102.737	-18.6891	-66.9382	92.5353	-22.1619	-95.3629	73.8161	-18.8086	-117.852	87.1723	-35.7838	-46.6223	79.3117	-39.9118	-65.5016	63.3795	-49.9259	-84.6899	122.729	-21.7398	-20.662	131.544	-21.8189	3.89137	142.505	5.51586	-14.6642	
80	0.666667	158.003	32.547	-9.3967	148.617	55.3416	-35.7363	137.439	69.2482	-57.1425	120.689	77.0557	-75.5942	135.652	18.1258	-83.5384	120.183	44.6908	-94.6621	104.166	65.395	-77.3247	125.76	-7.88756	-83.4926	114.344	-2.09933	-110.409	101.253	16.8215	-134.886	112.538	-19.3815	-67.9988	104.487	-19.5518	-94.1907	91.383	-13.6854	-119.945	93.786	-24.4818	-48.009	78.8346	-31.4455	-67.0772	63.3029	-33.2588	-87.4981	128.568	-22.9499	-20.3789	132.655	-24.0833	6.51616	155.61	-4.95929	-13.757	
81	0.675	179.935	17.2067	-8.65648	179.411	37.8532	-35.1858	176.596	51.8979	-60.736	160.053	57.0721	-78.9672	165.61	1.03231	-82.3524	157.226	27.9854	-97.9593	145.8	55.6691	-84.5063	143.026	-23.376	-83.7707	137.153	-14.1342	-112.467	133.064	3.71834	-138.158	125.708	-28.0352	-69.0591	122.278	-28.3265	-96.5901	109.569	-23.1846	-121.03	104.3	-25.0761	-49.6744	90.2509	-29.4557	-67.0375	79.1958	-32.1139	-86.8112	136.052	-28.7349	-15.5239	135.445	-29.9489	12.1593	164.142	-21.2047	-9.58061	
